<svg width="230" height="235" viewBox="0 0 230 235" fill="none" xmlns="http://www.w3.org/2000/svg">
<path d="M124.433 5.47169L116.753 1.11939C116.417 0.929056 116.001 1.17333 116.003 1.55938L116.061 10.3643C116.064 10.7503 116.483 10.9891 116.816 10.7944L124.439 6.34184C124.773 6.1466 124.77 5.66254 124.433 5.47169Z" stroke="#BDA588"/>
<path d="M212.332 179.35C201.974 196.337 187.351 210.317 169.917 219.901C152.482 229.485 132.843 234.339 112.95 233.982C93.0583 233.624 73.6061 228.067 56.5272 217.862C39.4483 207.657 25.3374 193.16 15.597 175.813C5.85655 158.465 0.825753 138.87 1.00461 118.975C1.18346 99.0806 6.56573 79.5793 16.6165 62.4093C26.6672 45.2394 41.0365 30.9987 58.2961 21.1027C75.5557 11.2067 95.1047 6 115 6" stroke="#BDA588" stroke-width="2" stroke-linecap="round" stroke-linejoin="round"/>
</svg>
