
<?xml version="1.0" encoding="UTF-8" ?>
<!DOCTYPE svg PUBLIC "-//W3C//DTD SVG 1.1//EN" "http://www.w3.org/Graphics/SVG/1.1/DTD/svg11.dtd">
<svg width="84pt" height="29pt" viewBox="0 0 84 29" version="1.1" xmlns="http://www.w3.org/2000/svg">
<g id="#191b1efd">
<path fill="#191b1e" opacity="1.00" d=" M 3.47 0.00 L 4.35 0.00 C 4.75 1.23 5.13 2.46 5.49 3.70 C 6.17 3.68 7.53 3.65 8.21 3.63 C 8.24 4.12 8.29 5.10 8.31 5.59 C 7.60 5.61 6.17 5.63 5.46 5.65 C 4.99 7.13 4.50 8.60 3.99 10.07 C 3.59 8.60 3.20 7.12 2.82 5.65 C 2.11 5.63 0.70 5.61 0.00 5.59 L 0.00 3.63 C 0.73 3.63 2.19 3.62 2.92 3.62 C 3.06 2.72 3.34 0.91 3.47 0.00 Z" />
<path fill="#191b1e" opacity="1.00" d=" M 41.35 0.00 L 42.36 0.00 C 42.72 1.24 43.06 2.49 43.39 3.74 C 44.08 3.70 45.44 3.62 46.12 3.58 C 46.12 4.09 46.11 5.10 46.11 5.61 C 45.35 5.61 43.85 5.62 43.10 5.63 C 43.03 6.44 42.90 8.07 42.84 8.88 C 42.42 8.88 41.58 8.88 41.16 8.88 C 41.10 8.07 40.97 6.44 40.90 5.63 C 40.15 5.62 38.65 5.61 37.90 5.61 C 37.89 5.11 37.87 4.11 37.86 3.62 C 38.60 3.63 40.09 3.65 40.83 3.66 C 40.96 2.75 41.22 0.92 41.35 0.00 Z" />
<path fill="#191b1e" opacity="1.00" d=" M 79.43 0.00 L 80.30 0.00 C 80.54 0.91 81.01 2.72 81.25 3.62 C 81.94 3.63 83.31 3.64 84.00 3.65 L 84.00 5.62 C 83.30 5.62 81.90 5.62 81.19 5.62 C 80.81 7.06 80.41 8.50 80.00 9.94 C 79.52 8.56 79.05 7.19 78.59 5.81 C 77.31 5.56 76.03 5.30 74.75 5.03 C 76.01 4.33 77.33 3.75 78.68 3.24 C 78.87 2.43 79.25 0.81 79.43 0.00 Z" />
<path fill="#191b1e" opacity="1.00" d=" M 3.25 20.02 C 3.71 20.05 4.64 20.12 5.10 20.15 C 5.11 20.92 5.13 22.47 5.14 23.25 C 5.92 23.25 7.47 23.26 8.25 23.26 C 8.25 23.76 8.25 24.74 8.26 25.24 C 7.54 25.23 6.12 25.22 5.41 25.21 C 5.09 26.47 4.76 27.74 4.42 29.00 L 3.79 29.00 C 3.44 27.76 3.12 26.51 2.81 25.25 C 2.11 25.25 0.70 25.23 0.00 25.23 L 0.00 23.26 C 0.76 23.25 2.27 23.24 3.03 23.23 C 3.09 22.42 3.19 20.82 3.25 20.02 Z" />
<path fill="#191b1e" opacity="1.00" d=" M 41.09 20.06 C 41.54 20.05 42.44 20.03 42.88 20.01 C 42.93 20.82 43.02 22.44 43.06 23.24 C 43.85 23.25 45.41 23.25 46.19 23.26 C 46.16 23.75 46.09 24.74 46.06 25.24 C 45.36 25.24 43.96 25.25 43.26 25.25 C 43.04 26.56 42.62 27.81 42.00 28.99 C 41.38 27.81 40.95 26.56 40.73 25.24 C 40.01 25.24 38.55 25.25 37.82 25.25 C 37.85 24.75 37.92 23.76 37.95 23.26 C 38.70 23.25 40.20 23.25 40.95 23.24 C 40.98 22.45 41.05 20.86 41.09 20.06 Z" />
<path fill="#191b1e" opacity="1.00" d=" M 78.40 22.80 C 78.91 21.54 79.51 20.31 80.52 19.38 C 80.64 20.34 80.88 22.26 81.00 23.22 C 81.75 23.23 83.25 23.27 84.00 23.28 L 84.00 25.26 C 83.29 25.25 81.88 25.21 81.18 25.20 C 80.92 26.46 80.66 27.73 80.40 29.00 L 79.77 29.00 C 79.33 27.75 78.91 26.50 78.52 25.24 C 77.68 25.21 76.00 25.17 75.16 25.14 C 75.67 23.65 77.14 23.33 78.40 22.80 Z" />
</g>
<g id="#04a5fafe">
<path class="fill-primary" opacity="1.00" d=" M 22.15 0.70 C 24.27 -0.81 24.03 2.40 24.14 3.64 C 24.89 3.64 26.40 3.63 27.16 3.62 C 27.14 4.12 27.10 5.13 27.08 5.63 C 26.35 5.62 24.89 5.62 24.16 5.61 C 23.99 7.15 24.31 9.20 22.15 9.10 C 22.09 8.22 21.99 6.48 21.94 5.61 C 21.20 5.62 19.73 5.62 19.00 5.63 C 19.00 5.13 19.00 4.12 19.00 3.62 C 19.71 3.63 21.15 3.64 21.86 3.65 C 21.93 2.91 22.08 1.44 22.15 0.70 Z" />
<path class="fill-primary" opacity="1.00" d=" M 59.77 3.64 C 59.84 2.28 60.28 1.06 61.09 0.01 C 61.67 1.15 62.06 2.37 62.24 3.64 C 62.93 3.64 64.31 3.63 65.00 3.62 C 65.00 4.12 65.00 5.13 65.00 5.63 C 64.26 5.62 62.78 5.62 62.04 5.62 C 62.01 6.41 61.96 8.00 61.93 8.79 C 61.47 8.80 60.55 8.83 60.09 8.85 C 60.06 8.04 59.98 6.42 59.95 5.61 C 59.19 5.62 57.68 5.62 56.92 5.63 C 56.90 5.13 56.86 4.12 56.84 3.62 C 57.57 3.63 59.04 3.64 59.77 3.64 Z" />
<path class="fill-primary" opacity="1.00" d=" M 22.05 20.07 C 22.53 20.08 23.48 20.08 23.95 20.09 C 23.97 20.88 24.01 22.46 24.03 23.25 C 24.82 23.25 26.41 23.25 27.20 23.25 C 27.17 23.75 27.10 24.75 27.06 25.25 C 26.30 25.25 24.77 25.25 24.01 25.24 C 24.01 26.03 24.00 27.59 24.00 28.38 C 23.50 28.38 22.50 28.38 22.01 28.38 C 22.00 27.60 21.99 26.03 21.99 25.24 C 21.24 25.24 19.75 25.25 19.00 25.25 C 19.00 24.75 19.00 23.75 19.00 23.25 C 19.74 23.25 21.23 23.25 21.97 23.25 C 21.99 22.46 22.03 20.87 22.05 20.07 Z" />
<path class="fill-primary" opacity="1.00" d=" M 60.04 20.10 C 60.51 20.09 61.46 20.06 61.93 20.05 C 61.96 20.85 62.01 22.45 62.04 23.25 C 62.78 23.25 64.26 23.25 65.00 23.25 C 65.00 23.75 65.00 24.75 65.00 25.25 C 64.28 25.24 62.84 25.23 62.13 25.23 C 61.96 26.60 62.45 29.34 60.13 28.30 C 60.07 27.53 59.94 25.99 59.87 25.22 C 59.11 25.23 57.59 25.25 56.82 25.26 C 56.85 24.75 56.92 23.75 56.95 23.25 C 57.70 23.25 59.22 23.25 59.97 23.25 C 59.99 22.46 60.03 20.89 60.04 20.10 Z" />
</g>
</svg>
