<?xml version="1.0" encoding="UTF-8" ?>
<!DOCTYPE svg PUBLIC "-//W3C//DTD SVG 1.1//EN" "http://www.w3.org/Graphics/SVG/1.1/DTD/svg11.dtd">
<svg width="44pt" height="23pt" viewBox="0 0 44 23" version="1.1" xmlns="http://www.w3.org/2000/svg">
<g id="#143141cf">
<path fill="#000" opacity="0.81" d=" M 10.04 4.06 C 17.49 -0.91 28.01 -0.73 35.15 4.71 C 39.96 8.24 43.02 13.75 44.00 19.58 L 44.00 22.56 C 43.55 22.56 42.64 22.54 42.18 22.54 C 41.76 16.22 39.02 9.84 33.62 6.24 C 25.93 0.49 14.18 1.65 7.73 8.73 C 4.12 12.31 2.53 17.30 2.06 22.25 C 1.55 22.24 0.52 22.21 0.01 22.19 C 0.41 15.06 3.84 7.88 10.04 4.06 Z" />
</g>
<g id="#04a6fbff">
<path class="fill-primary" opacity="1.00" d=" M 7.73 8.73 C 14.18 1.65 25.93 0.49 33.62 6.24 C 39.02 9.84 41.76 16.22 42.18 22.54 C 28.81 22.39 15.44 22.45 2.06 22.25 C 2.53 17.30 4.12 12.31 7.73 8.73 Z" />
</g>
</svg>
