<?xml version="1.0" encoding="UTF-8" ?>
<!DOCTYPE svg PUBLIC "-//W3C//DTD SVG 1.1//EN" "http://www.w3.org/Graphics/SVG/1.1/DTD/svg11.dtd">
<svg width="19pt" height="64pt" viewBox="0 0 19 64" version="1.1" xmlns="http://www.w3.org/2000/svg">
<g id="#191b1efe">
<path fill="#191b1e" opacity="1.00" d=" M 0.00 9.48 C 3.66 7.11 6.30 3.56 9.52 0.66 C 12.68 3.76 15.72 7.00 19.00 9.98 L 19.00 10.12 C 18.46 10.67 17.37 11.79 16.83 12.35 C 14.39 9.89 11.95 7.43 9.47 5.01 C 7.13 7.28 4.98 9.76 2.49 11.88 C 1.59 11.78 0.76 11.48 0.00 10.97 L 0.00 9.48 Z" />
<path fill="#191b1e" opacity="1.00" d=" M 0.00 35.44 C 3.62 32.96 6.30 29.43 9.54 26.52 C 12.66 29.72 15.90 32.81 19.00 36.04 L 19.00 36.06 C 18.49 36.56 17.47 37.54 16.96 38.04 C 14.38 35.65 11.85 33.20 9.26 30.81 C 6.74 33.29 4.50 36.09 1.53 38.08 C 1.15 37.77 0.38 37.14 0.00 36.82 L 0.00 35.44 Z" />
<path fill="#191b1e" opacity="1.00" d=" M 0.00 61.24 C 3.40 58.45 6.36 55.18 9.52 52.14 C 12.71 55.11 15.46 58.58 19.00 61.15 L 19.00 61.58 C 18.46 62.14 17.37 63.28 16.83 63.85 C 14.40 61.40 11.96 58.96 9.52 56.52 C 7.08 58.92 4.67 61.35 2.21 63.73 C 1.66 63.24 0.55 62.25 0.00 61.75 L 0.00 61.24 Z" />
</g>
<g id="#04a6fbff">
<path class="fill-primary" opacity="1.00" d=" M 9.49 13.51 C 12.70 16.56 15.62 19.90 19.00 22.76 L 19.00 22.98 C 18.26 23.72 17.51 24.44 16.76 25.16 C 14.35 22.71 11.93 20.28 9.47 17.88 C 7.12 20.25 4.75 22.60 2.46 25.02 C 1.63 24.66 0.81 24.28 0.00 23.89 L 0.00 22.48 C 3.58 19.96 6.30 16.48 9.49 13.51 Z" />
<path class="fill-primary" opacity="1.00" d=" M 0.00 48.32 C 3.46 45.58 6.28 42.13 9.51 39.13 C 12.71 42.14 15.50 45.58 19.00 48.24 L 19.00 48.89 C 18.43 49.35 17.28 50.28 16.71 50.74 C 14.32 48.31 11.91 45.89 9.47 43.50 C 7.06 45.95 4.64 48.40 2.15 50.77 C 1.62 50.26 0.54 49.23 0.00 48.71 L 0.00 48.32 Z" />
</g>
</svg>
