<svg width="44" height="19" viewBox="0 0 44 19" fill="none" xmlns="http://www.w3.org/2000/svg">
<path class="fill-primary" d="M36.4524 0L28.8493 7.56611L21.2415 0L13.6384 7.56611L6.03532 0L0.00462928 6.00294L0 7.68636L6.03532 1.67879L13.6384 9.2449L21.2415 1.67879L28.8493 9.2449L36.4524 1.67879L43.1629 8.35232L44 7.50599L36.4524 0Z"  />
<path d="M36.4524 9.24951L28.8493 16.8156L21.2415 9.24951L13.6384 16.8156L6.03532 9.24951L0.00462928 15.2525L0 16.9359L6.03532 10.9283L13.6384 18.4944L21.2415 10.9283L28.8493 18.4944L36.4524 10.9283L43.1629 17.6018L44 16.7555L36.4524 9.24951Z" fill="#191B1E"/>
</svg>
