 
<svg width="40pt" height="40pt" viewBox="0 0 40 40" version="1.1" xmlns="http://www.w3.org/2000/svg">
<g id="#000000ff" >
<path fill="#000000" opacity="1.00" d=" M 19.75 0.00 L 40.00 0.00 L 40.00 20.25 C 37.13 20.25 34.26 20.25 31.39 20.25 C 27.51 20.25 23.63 20.26 19.76 20.24 C 19.74 16.21 19.75 12.18 19.75 8.15 C 19.75 5.43 19.75 2.72 19.75 0.00 M 21.75 2.01 C 21.75 4.04 21.74 6.08 21.75 8.12 C 21.75 11.49 21.75 14.87 21.75 18.24 C 24.96 18.26 28.16 18.25 31.36 18.24 C 33.57 18.26 35.78 18.26 37.99 18.24 C 38.00 12.83 38.00 7.42 37.99 2.00 C 32.58 2.00 27.17 1.99 21.75 2.01 Z" />
</g>
<g id="#04a6fbff">
<path class="fill-primary"  opacity="1.00" d=" M 11.14 8.14 C 14.01 8.12 16.88 8.12 19.75 8.15 C 19.75 12.18 19.74 16.21 19.76 20.24 C 23.63 20.26 27.51 20.25 31.39 20.25 C 31.39 22.96 31.36 25.66 31.36 28.36 C 28.32 28.38 25.28 28.38 22.23 28.37 C 21.73 28.37 20.73 28.37 20.24 28.37 C 17.20 28.39 14.17 28.38 11.13 28.36 C 11.12 25.32 11.12 22.29 11.13 19.25 C 11.13 18.75 11.13 17.75 11.13 17.25 C 11.11 14.21 11.13 11.17 11.14 8.14 Z" />
<path  class="fill-primary" opacity="1.00" d=" M 21.75 8.12 C 24.95 8.12 28.16 8.13 31.36 8.14 C 31.38 11.50 31.38 14.87 31.36 18.24 C 28.16 18.25 24.96 18.26 21.75 18.24 C 21.75 14.87 21.75 11.49 21.75 8.12 Z" />
</g>
<g id="#1d262dff">
<path fill="#000000" opacity="1.00" d=" M 0.00 17.25 C 3.71 17.25 7.42 17.26 11.13 17.25 C 11.13 17.75 11.13 18.75 11.13 19.25 C 8.09 19.25 5.05 19.25 2.02 19.25 C 1.98 25.33 2.00 31.41 2.01 37.49 C 8.09 37.51 14.16 37.50 20.24 37.49 C 20.26 34.45 20.26 31.41 20.24 28.37 C 20.73 28.37 21.73 28.37 22.23 28.37 C 22.26 32.08 22.26 35.78 22.24 39.49 C 14.83 39.51 7.41 39.51 0.00 39.49 L 0.00 17.25 Z" />
</g>
</svg>
