<?xml version="1.0" encoding="UTF-8" ?>
<!DOCTYPE svg PUBLIC "-//W3C//DTD SVG 1.1//EN" "http://www.w3.org/Graphics/SVG/1.1/DTD/svg11.dtd">
<svg width="26pt" height="44pt" viewBox="0 0 26 44" version="1.1" xmlns="http://www.w3.org/2000/svg">
<g id="#04a6fbff">
<path class="fill-primary" opacity="1.00" d=" M 12.61 0.00 L 13.22 0.00 C 16.82 2.86 21.00 4.82 24.88 7.25 C 25.13 11.49 24.86 15.74 25.17 19.98 C 21.11 17.75 17.18 15.26 13.00 13.25 C 8.81 15.25 4.87 17.73 0.83 20.01 C 1.14 15.76 0.89 11.50 1.09 7.25 C 4.95 4.88 9.13 2.96 12.61 0.00 Z" />
<path class="fill-primary" opacity="1.00" d=" M 2.32 21.81 C 5.69 19.40 9.28 17.33 12.99 15.50 C 16.79 17.32 20.37 19.54 23.94 21.76 C 20.29 23.82 16.72 26.01 13.02 27.95 C 9.35 26.09 5.83 23.96 2.32 21.81 Z" />
</g>
<g id="#1d262dff">
<path fill="#1d262d" opacity="1.00" d=" M 0.83 20.01 C 4.87 17.73 8.81 15.25 13.00 13.25 C 17.18 15.26 21.11 17.75 25.17 19.98 L 26.00 20.63 L 26.00 35.63 C 21.64 38.01 17.47 40.71 13.01 42.90 C 8.54 40.71 4.36 38.00 0.00 35.60 L 0.00 20.67 L 0.83 20.01 M 2.32 21.81 C 1.77 26.06 1.79 30.38 2.30 34.63 C 5.83 36.69 9.34 38.79 12.99 40.64 C 16.66 38.79 20.17 36.66 23.75 34.64 C 24.23 30.36 24.01 26.05 23.94 21.76 C 20.37 19.54 16.79 17.32 12.99 15.50 C 9.28 17.33 5.69 19.40 2.32 21.81 Z" />
</g>
</svg>
