<?xml version="1.0" encoding="UTF-8" ?>
<!DOCTYPE svg PUBLIC "-//W3C//DTD SVG 1.1//EN" "http://www.w3.org/Graphics/SVG/1.1/DTD/svg11.dtd">
<svg width="44pt" height="19pt" viewBox="0 0 44 19" version="1.1" xmlns="http://www.w3.org/2000/svg">
<g id="#000">
<path fill="#000" opacity="0.78" d=" M 5.59 0.00 L 6.27 0.00 C 8.78 2.30 11.06 4.82 13.46 7.23 C 16.15 4.92 18.69 2.43 21.27 0.00 L 21.53 0.00 C 24.07 2.26 26.05 5.47 29.11 6.94 C 31.72 4.86 33.79 2.19 36.31 0.00 L 36.71 0.00 C 39.23 2.35 41.67 4.80 44.00 7.34 L 44.00 8.79 C 41.33 6.69 38.68 4.53 36.41 1.99 C 33.95 4.57 31.42 7.09 28.87 9.58 C 26.32 7.06 23.72 4.59 21.25 1.99 C 18.79 4.52 16.32 7.03 13.81 9.50 C 11.19 6.99 8.53 4.53 6.05 1.89 C 4.03 3.85 1.96 5.77 0.00 7.79 L 0.00 5.76 C 1.81 3.79 3.73 1.92 5.59 0.00 Z" />
<path class="fill-primary" opacity="0.78" d=" M 0.00 15.50 C 1.88 13.44 3.76 11.32 6.00 9.66 C 8.94 11.45 11.08 14.57 13.72 16.86 C 16.22 14.31 18.74 11.80 21.28 9.30 C 23.79 11.82 26.30 14.34 28.80 16.87 C 31.34 14.37 33.85 11.83 36.33 9.27 C 38.80 11.88 41.52 14.23 44.00 16.82 L 44.00 17.94 C 41.42 15.73 38.82 13.54 36.61 10.95 C 34.06 13.46 31.44 15.88 28.96 18.45 C 26.38 16.00 23.86 13.48 21.43 10.87 C 18.76 13.33 16.13 15.82 13.70 18.51 C 11.11 16.03 8.48 13.59 6.03 10.97 C 4.00 12.98 1.90 14.93 0.00 17.07 L 0.00 15.50 Z" />
</g>
</svg>
