<?xml version="1.0" encoding="UTF-8" ?>
<!DOCTYPE svg PUBLIC "-//W3C//DTD SVG 1.1//EN" "http://www.w3.org/Graphics/SVG/1.1/DTD/svg11.dtd">
<svg width="44pt" height="26pt" viewBox="0 0 44 26" version="1.1" xmlns="http://www.w3.org/2000/svg">
<g id="#171f25e1">
<path fill="#171f25" opacity="0.88" d=" M 24.47 0.00 L 25.13 0.00 C 26.31 2.05 24.06 3.44 22.87 4.81 C 15.71 11.67 8.98 18.99 1.68 25.71 C 1.34 25.36 0.65 24.66 0.30 24.30 C 8.13 15.99 16.39 8.07 24.47 0.00 Z" />
<path fill="#171f25" opacity="0.88" d=" M 36.14 0.00 L 36.72 0.00 C 36.84 0.56 37.09 1.69 37.21 2.25 C 30.23 9.27 23.20 16.23 16.23 23.25 C 15.43 24.09 14.71 25.00 14.11 26.00 L 13.63 26.00 C 13.34 25.55 12.76 24.65 12.47 24.21 C 20.02 15.83 28.56 8.37 36.14 0.00 Z" />
</g>
<g id="#0396e3e6">
<path class="fill-primary" opacity="0.90" d=" M 30.28 0.00 L 30.81 0.00 C 31.02 0.47 31.43 1.41 31.64 1.88 C 23.81 10.04 15.48 17.73 7.80 26.00 L 7.18 26.00 C 6.92 25.63 6.39 24.88 6.13 24.51 C 13.94 16.11 22.39 8.33 30.28 0.00 Z" />
<path class="fill-primary" opacity="0.90" d=" M 18.37 24.09 C 26.39 16.03 34.36 7.91 42.54 0.01 C 42.74 0.48 43.15 1.42 43.35 1.89 C 35.76 10.19 27.35 17.73 19.70 26.00 L 19.16 26.00 C 18.96 25.52 18.57 24.57 18.37 24.09 Z" />
</g>
</svg>
